<svg xmlns="http://www.w3.org/2000/svg" viewBox="0 0 32 32" width="32" height="32">
  <defs>
    <style>
      .ball { fill: #ffffff; stroke: #000000; stroke-width: 1; }
      .pentagon { fill: #000000; }
      .hexagon { fill: #ffffff; stroke: #000000; stroke-width: 0.5; }
    </style>
  </defs>
  
  <!-- Main ball circle -->
  <circle cx="16" cy="16" r="15" class="ball"/>
  
  <!-- Center pentagon -->
  <polygon points="16,8 19.5,11 18,15.5 14,15.5 12.5,11" class="pentagon"/>
  
  <!-- Top hexagons -->
  <polygon points="16,8 19.5,11 22,8 20,4 12,4 14.5,8 12.5,11" class="hexagon"/>
  
  <!-- Left hexagon -->
  <polygon points="12.5,11 14,15.5 10,18 6,15 8,11 12.5,11" class="hexagon"/>
  
  <!-- Right hexagon -->  
  <polygon points="19.5,11 24,11 26,15 22,18 18,15.5 19.5,11" class="hexagon"/>
  
  <!-- Bottom left -->
  <polygon points="14,15.5 18,15.5 16,20 12,22 10,18 14,15.5" class="hexagon"/>
  
  <!-- Bottom pentagons -->
  <polygon points="16,20 20,22 18,26 14,26 12,22 16,20" class="pentagon"/>
  
  <!-- Add some curved lines to show ball curvature -->
  <path d="M 6,10 Q 16,6 26,10" fill="none" stroke="#000000" stroke-width="0.5" opacity="0.6"/>
  <path d="M 6,22 Q 16,26 26,22" fill="none" stroke="#000000" stroke-width="0.5" opacity="0.6"/>
  <path d="M 10,6 Q 16,16 10,26" fill="none" stroke="#000000" stroke-width="0.5" opacity="0.6"/>
  <path d="M 22,6 Q 16,16 22,26" fill="none" stroke="#000000" stroke-width="0.5" opacity="0.6"/>
</svg>
